<svg version="1" xmlns="http://www.w3.org/2000/svg" width="346.667" height="346.667" viewBox="0 0 260.000000 260.000000"><path d="M101.3 58.2c-.6.7-7.4 13.9-15.3 29.3-7.8 15.4-14.4 28.2-14.6 28.4-.2.2-8.7-6.6-18.9-15C41 91.4 33 85.5 31.7 85.5h-2.2v117l98.5.3c54.2.1 99.5 0 100.8-.3l2.2-.5-.2-58.3c-.3-57.4-.3-58.2-2.3-58.5-1.3-.1-8.5 5.2-21.2 15.8L188 117l-1.4-2.8c-.9-1.5-8-14.9-15.9-29.7-12.4-23.2-14.7-27-16.7-27-1.8 0-4.3 3.2-13.1 17-5.9 9.3-11.1 17.1-11.6 17.2-.4.2-5.9-7.6-12.1-17.2-11.3-17.3-13.4-19.5-15.9-16.3z"/></svg>